<svg width="44" height="20" viewBox="0 0 44 20" fill="none" xmlns="http://www.w3.org/2000/svg">
<path fill-rule="evenodd" clip-rule="evenodd" d="M10 20C4.47705 20 0 15.5228 0 10C0 4.47717 4.47705 0 10 0H34C39.5229 0 44 4.47717 44 10C44 15.5228 39.5229 20 34 20H10Z" fill="#E2E2E2"/>
<circle cx="10" cy="10" r="8" fill="#2F3640"/>
<path fill-rule="evenodd" clip-rule="evenodd" d="M39.2733 12.8646C38.8629 12.9533 38.4369 13 38 13C34.6863 13 32 10.3137 32 7C32 5.96257 32.2633 4.98664 32.7267 4.13538C30.0246 4.71928 28 7.1232 28 10C28 13.3137 30.6863 16 34 16C36.2763 16 38.2565 14.7324 39.2733 12.8646Z" fill="#EED811"/>
</svg>
